<svg width="400" height="300" viewBox="0 0 400 300" xmlns="http://www.w3.org/2000/svg">
  <defs>
    <linearGradient id="skyGradient" x1="0%" y1="0%" x2="0%" y2="100%">
      <stop offset="0%" style="stop-color:#87CEEB;stop-opacity:1" />
      <stop offset="100%" style="stop-color:#F0F8FF;stop-opacity:1" />
    </linearGradient>
    <linearGradient id="groundGradient" x1="0%" y1="0%" x2="0%" y2="100%">
      <stop offset="0%" style="stop-color:#8B7355;stop-opacity:1" />
      <stop offset="100%" style="stop-color:#654321;stop-opacity:1" />
    </linearGradient>
    <radialGradient id="explosionGradient" cx="50%" cy="50%" r="50%">
      <stop offset="0%" style="stop-color:#FFD700;stop-opacity:0.8" />
      <stop offset="30%" style="stop-color:#FF4500;stop-opacity:0.6" />
      <stop offset="100%" style="stop-color:#8B0000;stop-opacity:0.3" />
    </radialGradient>
  </defs>
  
  <!-- Sky background -->
  <rect width="400" height="200" fill="url(#skyGradient)"/>
  
  <!-- Ground -->
  <rect x="0" y="200" width="400" height="100" fill="url(#groundGradient)"/>
  
  <!-- Railway tracks -->
  <rect x="180" y="200" width="4" height="100" fill="#708090"/>
  <rect x="216" y="200" width="4" height="100" fill="#708090"/>
  <rect x="170" y="220" width="60" height="6" fill="#8B4513" rx="3"/>
  <rect x="170" y="240" width="60" height="6" fill="#8B4513" rx="3"/>
  <rect x="170" y="260" width="60" height="6" fill="#8B4513" rx="3"/>
  <rect x="170" y="280" width="60" height="6" fill="#8B4513" rx="3"/>
  
  <!-- Left train (coming from left) -->
  <g transform="translate(80, 160)">
    <!-- Train body -->
    <rect x="0" y="20" width="60" height="25" fill="#2F4F4F" rx="5"/>
    <!-- Front -->
    <rect x="55" y="15" width="15" height="35" fill="#1C1C1C" rx="7"/>
    <!-- Windows -->
    <rect x="10" y="25" width="8" height="8" fill="#87CEEB"/>
    <rect x="25" y="25" width="8" height="8" fill="#87CEEB"/>
    <rect x="40" y="25" width="8" height="8" fill="#87CEEB"/>
    <!-- Wheels -->
    <circle cx="15" cy="50" r="6" fill="#2F2F2F"/>
    <circle cx="35" cy="50" r="6" fill="#2F2F2F"/>
    <circle cx="55" cy="50" r="6" fill="#2F2F2F"/>
    <!-- Chimney -->
    <rect x="45" y="10" width="6" height="12" fill="#1C1C1C"/>
  </g>
  
  <!-- Right train (coming from right) -->
  <g transform="translate(260, 160)">
    <!-- Train body -->
    <rect x="0" y="20" width="60" height="25" fill="#8B0000" rx="5"/>
    <!-- Front -->
    <rect x="-10" y="15" width="15" height="35" fill="#1C1C1C" rx="7"/>
    <!-- Windows -->
    <rect x="42" y="25" width="8" height="8" fill="#87CEEB"/>
    <rect x="27" y="25" width="8" height="8" fill="#87CEEB"/>
    <rect x="12" y="25" width="8" height="8" fill="#87CEEB"/>
    <!-- Wheels -->
    <circle cx="45" cy="50" r="6" fill="#2F2F2F"/>
    <circle cx="25" cy="50" r="6" fill="#2F2F2F"/>
    <circle cx="5" cy="50" r="6" fill="#2F2F2F"/>
    <!-- Chimney -->
    <rect x="9" y="10" width="6" height="12" fill="#1C1C1C"/>
  </g>
  
  <!-- Explosion/Impact at center -->
  <circle cx="200" cy="185" r="45" fill="url(#explosionGradient)"/>
  
  <!-- Explosion sparks/debris -->
  <circle cx="180" cy="160" r="3" fill="#FFD700"/>
  <circle cx="220" cy="170" r="2" fill="#FF4500"/>
  <circle cx="195" cy="150" r="2" fill="#FFD700"/>
  <circle cx="210" cy="155" r="3" fill="#FF6347"/>
  <circle cx="175" cy="175" r="2" fill="#FF4500"/>
  <circle cx="225" cy="165" r="2" fill="#FFD700"/>
  
  <!-- Smoke clouds -->
  <ellipse cx="190" cy="120" rx="20" ry="15" fill="#696969" opacity="0.6"/>
  <ellipse cx="210" cy="110" rx="25" ry="18" fill="#696969" opacity="0.4"/>
  <ellipse cx="200" cy="95" rx="15" ry="12" fill="#A9A9A9" opacity="0.5"/>
</svg>